# xmcd
# 
# Track frame offsets:
#     150
#     20695
#     41687
#     65367
#     76761
#     92307
#     108853
#     124891
#     148065
#     170402
#     186671
#     205514
#     230091
# 
# Disc length: 3324
# 
# Revision: 10
# Processed by: cddbd v1.5.2PL0 Copyright (c) Steve Scherf et al.
# Submitted via: fre:ac v1.0.31
# 
DISCID=ad0cfa0d
DTITLE=Chris Rea - Blue Guitars - [06 Chicago Blues]
DYEAR=2005
DGENRE=Blues
TTITLE0=I’m Moving Up
TTITLE1=Maxwell Street
TTITLE2=Bob Taylor
TTITLE3=She's A Whole Heap Of Trouble
TTITLE4=Jazzy Blue
TTITLE5=Hip-Sway
TTITLE6=That's The Way It Goes
TTITLE7=To Get Your Love
TTITLE8=Chicago Morning
TTITLE9=Catwalk Woman
TTITLE10=Since You've Been Gone
TTITLE11=All Night Long
TTITLE12=Here She Come Now
EXTD=CD 2005 - CD 06/11\nJazzee Blue/EarBooks - edel records 9 783937 406329
EXTT0=
EXTT1=
EXTT2=
EXTT3=
EXTT4=
EXTT5=
EXTT6=
EXTT7=
EXTT8=
EXTT9=
EXTT10=
EXTT11=
EXTT12=
PLAYORDER=
